<?xml version="1.0" standalone="no"?>
<!DOCTYPE svg PUBLIC "-//W3C//DTD SVG 20010904//EN"
 "http://www.w3.org/TR/2001/REC-SVG-20010904/DTD/svg10.dtd">
<svg version="1.0" xmlns="http://www.w3.org/2000/svg"
 width="120.000000pt" height="120.000000pt" viewBox="0 0 120.000000 120.000000"
 preserveAspectRatio="xMidYMid meet">
<metadata>
Created by potrace 1.10, written by Peter Selinger 2001-2011
</metadata>
<g transform="translate(0.000000,120.000000) scale(0.100000,-0.100000)"
fill="none" stroke="#000000" stroke-width="20">
<path d="M108 1074 c3 -25 11 -39 28 -46 13 -6 24 -14 24 -19 0 -4 18 -14 41
-23 47 -19 83 -56 106 -109 11 -26 26 -42 50 -52 31 -13 34 -18 28 -42 -7 -29
-16 -42 -77 -102 -20 -20 -39 -48 -43 -63 -4 -17 -16 -28 -37 -34 -16 -5 -30
-11 -30 -14 -3 -27 16 -450 20 -457 5 -7 139 -4 394 9 l386 18 51 -31 c28 -18
53 -30 54 -28 21 25 67 100 67 108 0 5 -39 33 -87 62 -49 29 -89 53 -91 55 -2
1 12 33 31 70 31 62 36 85 49 214 9 80 12 148 8 153 -3 4 -58 17 -121 29 -99
18 -132 30 -250 89 -120 60 -573 249 -596 249 -5 0 -7 -16 -5 -36z m600 -228
c116 -58 148 -70 245 -87 61 -11 113 -22 115 -24 2 -2 -3 -69 -11 -149 -13
-134 -17 -150 -51 -211 -20 -36 -36 -67 -36 -69 0 -2 43 -29 95 -60 l95 -57
-30 -45 c-17 -24 -34 -44 -38 -44 -4 0 -25 12 -47 27 l-39 27 -384 -18 c-211
-10 -386 -16 -388 -13 -5 4 -23 326 -24 405 0 33 4 42 17 42 21 0 53 29 53 48
0 8 17 32 38 52 65 63 82 90 82 126 0 31 -4 35 -31 41 -24 4 -35 15 -48 43
-25 55 -65 98 -110 116 -23 9 -41 19 -41 23 0 5 -11 13 -25 19 -16 8 -25 20
-25 35 0 23 7 21 228 -68 125 -51 287 -122 360 -159z"/>
</g>
</svg>
